<?xml version="1.0" encoding="UTF-8" standalone="no"?>
<!DOCTYPE svg PUBLIC "-//W3C//DTD SVG 1.1//EN" "http://www.w3.org/Graphics/SVG/1.1/DTD/svg11.dtd">
<svg version="1.1" xmlns="http://www.w3.org/2000/svg" xmlns:xlink="http://www.w3.org/1999/xlink" preserveAspectRatio="xMidYMid meet" viewBox="0 0 640 640"><defs><path d="" id="b6bDvyQkQ"></path><path d="M610 439.28L610 439.28L516.33 439.28L485.11 345.61L422.67 564.17L360.22 345.61L297.78 564.17L235.33 345.61L174.14 562.42L141.67 439.28L48 439.28" id="aOYcFi13D"></path><path d="M205.16 254.02C177.2 263.65 192.51 257.05 251.11 234.22C269.59 227.02 270.78 201.34 253.06 192.46C246.67 189.26 230.7 181.26 205.16 168.47C190.32 159.46 181.05 153.83 177.34 151.58C155.82 138.52 152.54 108.6 170.72 91.18C173.75 88.28 181.31 81.04 193.42 69.44" id="c9jXsX4saF"></path><path d="M320.96 254.02C292.99 263.65 308.31 257.05 366.91 234.22C385.39 227.02 386.58 201.34 368.85 192.46C362.47 189.26 346.5 181.26 320.96 168.47C306.12 159.46 296.85 153.83 293.14 151.58C271.62 138.52 268.34 108.6 286.52 91.18C289.55 88.28 297.11 81.04 309.22 69.44" id="a3mCdR0fbg"></path><path d="M450.89 254.02C422.92 263.65 438.24 257.05 496.84 234.22C515.32 227.02 516.51 201.34 498.78 192.46C492.4 189.26 476.43 181.26 450.89 168.47C436.05 159.46 426.78 153.83 423.07 151.58C401.55 138.52 398.27 108.6 416.45 91.18C419.47 88.28 427.04 81.04 439.14 69.44" id="afs5jlGRR"></path></defs><g visibility="inherit"><g visibility="inherit"><g visibility="inherit"><g><use xlink:href="#b6bDvyQkQ" opacity="1" fill-opacity="0" stroke="#000000" stroke-width="13" stroke-opacity="1"></use></g></g><g visibility="inherit"><g><use xlink:href="#aOYcFi13D" opacity="1" fill-opacity="0" stroke="#000000" stroke-width="13" stroke-opacity="1"></use></g></g><g visibility="inherit"><use xlink:href="#c9jXsX4saF" opacity="1" fill="#ffffff" fill-opacity="0"></use><g><use xlink:href="#c9jXsX4saF" opacity="1" fill-opacity="0" stroke="#ff0000" stroke-width="13" stroke-opacity="1"></use></g></g><g visibility="inherit"><use xlink:href="#a3mCdR0fbg" opacity="1" fill="#ffffff" fill-opacity="0"></use><g><use xlink:href="#a3mCdR0fbg" opacity="1" fill-opacity="0" stroke="#ff0000" stroke-width="13" stroke-opacity="1"></use></g></g><g visibility="inherit"><use xlink:href="#afs5jlGRR" opacity="1" fill="#ffffff" fill-opacity="0"></use><g><use xlink:href="#afs5jlGRR" opacity="1" fill-opacity="0" stroke="#ff0000" stroke-width="13" stroke-opacity="1"></use></g></g></g></g></svg>